<?xml version="1.0" standalone="no"?>
<!DOCTYPE svg PUBLIC "-//W3C//DTD SVG 20010904//EN"
 "http://www.w3.org/TR/2001/REC-SVG-20010904/DTD/svg10.dtd">
<svg version="1.0" xmlns="http://www.w3.org/2000/svg"
 width="512.000000pt" height="512.000000pt" viewBox="0 0 512.000000 512.000000"
 preserveAspectRatio="xMidYMid meet">
<metadata>
Created by potrace 1.11, written by Peter Selinger 2001-2013
</metadata>
<g transform="translate(0.000000,512.000000) scale(0.100000,-0.100000)"
fill="#000000" stroke="none">
<path d="M2180 5091 c0 -5 -36 -12 -80 -16 -44 -4 -82 -11 -85 -15 -3 -4 -41
-13 -85 -21 -44 -7 -80 -16 -80 -20 0 -4 -20 -11 -45 -15 -25 -3 -48 -10 -50
-14 -3 -5 -30 -14 -60 -21 -30 -7 -55 -16 -55 -21 0 -4 -7 -8 -16 -8 -9 0 -35
-9 -58 -19 -102 -48 -133 -61 -144 -61 -7 0 -12 -4 -12 -8 0 -5 -29 -21 -65
-37 -36 -16 -65 -32 -65 -36 0 -4 -12 -12 -27 -18 -16 -6 -41 -19 -58 -29 -28
-16 -37 -23 -68 -48 -7 -6 -24 -17 -37 -24 -27 -14 -29 -16 -85 -65 -22 -19
-43 -35 -46 -35 -4 0 -24 -16 -45 -35 -22 -19 -42 -35 -45 -35 -11 0 -250
-244 -267 -272 -9 -16 -20 -28 -24 -28 -4 0 -21 -20 -38 -45 -17 -25 -42 -57
-55 -73 -42 -46 -44 -50 -38 -56 4 -3 1 -6 -5 -6 -7 0 -12 -7 -12 -15 0 -9 -6
-18 -14 -21 -8 -3 -17 -13 -20 -22 -4 -9 -18 -35 -31 -57 -14 -22 -30 -51 -37
-65 -7 -14 -15 -27 -19 -30 -3 -3 -12 -20 -20 -37 -8 -18 -17 -33 -21 -33 -3
0 -9 -13 -13 -30 -4 -16 -10 -30 -15 -30 -4 0 -11 -16 -15 -36 -3 -20 -9 -33
-12 -30 -6 5 -25 -42 -56 -134 -6 -19 -14 -37 -18 -40 -3 -3 -12 -30 -19 -60
-7 -30 -16 -59 -20 -65 -4 -5 -11 -28 -15 -50 -4 -22 -10 -44 -15 -50 -4 -5
-13 -46 -19 -90 -7 -44 -16 -89 -21 -100 -39 -90 -39 -877 0 -930 4 -5 13 -49
20 -98 7 -48 16 -87 20 -87 5 0 11 -23 15 -50 4 -28 10 -50 15 -50 4 0 13 -29
20 -65 7 -36 16 -65 20 -65 5 0 12 -15 15 -32 4 -18 11 -37 15 -43 4 -5 14
-29 21 -52 6 -24 16 -43 21 -43 4 0 8 -6 8 -12 0 -16 81 -179 98 -196 6 -7 12
-19 12 -27 0 -7 4 -15 8 -17 4 -1 21 -25 37 -53 16 -27 35 -56 42 -63 7 -7 13
-20 13 -28 0 -8 4 -14 9 -14 4 0 21 -19 37 -42 34 -51 81 -113 109 -143 11
-12 43 -48 70 -80 28 -32 58 -65 68 -74 11 -9 50 -45 88 -81 38 -36 86 -78
106 -95 20 -16 44 -38 54 -47 10 -9 28 -22 40 -29 13 -6 28 -16 33 -21 49 -40
60 -48 66 -48 4 0 18 -9 31 -20 37 -30 41 -33 102 -65 31 -16 57 -32 57 -36 0
-4 13 -10 29 -14 16 -3 35 -12 41 -20 6 -8 25 -17 41 -20 16 -4 29 -10 29 -15
0 -5 14 -11 30 -15 17 -4 30 -10 30 -14 0 -4 23 -13 50 -20 28 -7 50 -16 50
-21 0 -4 16 -11 35 -14 19 -4 35 -10 35 -15 0 -4 29 -13 65 -20 36 -7 65 -17
65 -21 0 -4 21 -11 48 -15 26 -4 49 -10 52 -14 6 -9 152 -36 295 -56 186 -25
759 -15 815 14 8 5 55 14 103 21 48 7 87 16 87 20 0 4 21 11 48 15 26 4 52 10
57 15 6 4 36 13 68 20 31 7 57 17 57 21 0 4 15 11 33 14 17 4 37 11 42 15 6 4
29 14 53 21 23 6 42 16 42 21 0 4 5 8 12 8 15 0 179 81 196 97 7 7 20 13 28
13 8 0 14 4 14 9 0 5 15 14 33 22 17 7 34 15 37 18 13 15 87 61 98 61 7 0 12
4 12 9 0 4 19 21 43 37 49 34 56 39 101 79 18 17 51 44 72 61 62 50 167 156
239 241 36 43 77 90 90 105 14 15 25 29 25 33 0 3 11 18 24 32 13 14 30 37 38
52 7 14 18 31 23 38 6 7 15 19 22 27 6 7 9 17 6 20 -4 3 -2 6 4 6 6 0 14 8 17
18 4 9 18 35 31 57 13 22 29 51 35 65 6 13 14 27 18 30 12 9 92 183 92 199 0
6 5 11 10 11 6 0 10 7 10 16 0 8 8 34 19 57 10 23 22 58 26 77 4 19 11 40 15
45 4 6 11 26 15 45 4 19 11 40 15 45 4 6 13 44 20 85 7 41 17 80 21 85 4 6 11
45 15 88 4 42 11 74 15 71 5 -3 9 164 9 375 0 210 -4 381 -9 381 -4 0 -12 33
-16 73 -3 39 -10 77 -14 82 -5 6 -13 44 -20 84 -6 41 -16 80 -20 85 -5 6 -12
30 -16 54 -4 23 -10 42 -15 42 -4 0 -13 27 -20 60 -7 33 -16 60 -20 60 -4 0
-11 12 -15 28 -3 15 -22 60 -41 100 -19 40 -34 79 -34 87 0 8 -4 15 -8 15 -4
0 -13 12 -20 28 -6 15 -27 54 -47 87 -19 33 -40 71 -47 85 -7 14 -18 29 -25
33 -7 4 -13 13 -13 19 0 12 -71 113 -111 157 -8 9 -22 27 -30 38 -35 51 -102
124 -209 229 -152 149 -176 171 -202 185 -12 6 -31 20 -42 31 -11 10 -52 40
-91 66 -38 25 -72 49 -75 53 -6 7 -54 34 -92 51 -16 7 -28 16 -28 19 0 4 -16
13 -35 19 -19 6 -35 15 -35 20 0 5 -13 11 -30 15 -16 4 -30 11 -30 16 0 5 -6
9 -12 9 -7 0 -35 11 -63 25 -27 13 -56 25 -62 25 -7 0 -13 5 -13 10 0 6 -7 10
-16 10 -8 0 -34 9 -57 19 -23 11 -59 22 -79 26 -21 4 -38 11 -38 15 0 5 -23
11 -50 15 -28 4 -48 10 -45 14 2 5 -34 14 -80 20 -47 7 -87 17 -90 21 -3 5
-39 11 -80 15 -41 4 -75 11 -75 16 0 5 -165 9 -375 9 -214 0 -375 -4 -375 -9z"/>
</g>
</svg>
